<svg width="61" height="80" viewBox="0 0 61 80" fill="none" xmlns="http://www.w3.org/2000/svg">
<path fill-rule="evenodd" clip-rule="evenodd" d="M30.2 55.7704C46.8043 55.7704 60.2667 63.3656 60.2667 72.728C60.2667 82.0904 46.8043 78.368 30.2 78.368C13.5957 78.368 0.133331 82.0904 0.133331 72.728C0.133331 63.3656 13.5957 55.7704 30.2 55.7704ZM30.2 0.160029C43.9401 0.344269 54.9467 11.6047 54.8235 25.3513C54.7006 39.0982 43.494 50.1598 29.7531 50.0977C16.0119 50.0357 4.90566 38.8737 4.90642 25.1264C4.95001 18.4596 7.63985 12.0834 12.3836 7.40104C17.1274 2.71871 23.5361 0.113781 30.2 0.160029Z" fill="#1D242B"/>
</svg>
